<?xml version="1.0" encoding="utf-8"?>
<!-- Generator: Adobe Illustrator 23.0.3, SVG Export Plug-In . SVG Version: 6.00 Build 0)  -->
<svg version="1.1" id="Capa_1" xmlns="http://www.w3.org/2000/svg" xmlns:xlink="http://www.w3.org/1999/xlink" x="0px" y="0px"
	 viewBox="0 0 345.1 345.1" style="enable-background:new 0 0 345.1 345.1;" xml:space="preserve">
<style type="text/css">
	.st0{fill:#FFFFFF;}
</style>
<g>
	<path class="st0" d="M172.5,0C77.4,0,0,77.4,0,172.5c0,95.1,77.4,172.5,172.5,172.5c95.1,0,172.6-77.4,172.6-172.5
		C345.1,77.4,267.7,0,172.5,0z M152,209.5c0,6.3-2.9,12.1-7.4,15c-4.6,2.9-10.1,2.3-14.2-1.4l-31.2-28c-1.4,0.6-3,1-4.7,1H68.3
		c-6.2,0-11.2-5-11.2-11.2v-26.2c0-6.2,5-11.2,11.2-11.2h26.2c2.1,0,4,0.6,5.7,1.6l30.3-27.2c2.4-2.1,5.2-3.2,8-3.2
		c2.1,0,4.2,0.6,6.2,1.8c4.6,2.9,7.4,8.7,7.4,15L152,209.5L152,209.5z M186.5,206.8c-2.5,0-4.9-0.9-6.8-2.8c-3.8-3.8-3.8-9.8,0-13.6
		c4.8-4.8,7.4-11.1,7.4-17.9c0-6.7-2.6-13.1-7.4-17.9c-3.8-3.8-3.8-9.8,0-13.6c3.8-3.8,9.8-3.8,13.6,0c8.4,8.4,13,19.6,13,31.4
		c0,11.9-4.6,23.1-13,31.5C191.4,205.9,189,206.8,186.5,206.8z M215.4,227.1c-2.5,0-4.9-0.9-6.8-2.8c-3.8-3.8-3.8-9.8,0-13.6
		c21-21,21-55.3,0-76.3c-3.8-3.8-3.8-9.8,0-13.6s9.8-3.8,13.6,0c28.5,28.5,28.5,74.9,0,103.5C220.3,226.2,217.8,227.1,215.4,227.1z
		 M251,250.7c-1.9,1.9-4.3,2.8-6.8,2.8c-2.5,0-4.9-0.9-6.8-2.8c-3.8-3.8-3.8-9.8,0-13.6c17.3-17.3,26.7-40.2,26.7-64.6
		c0-24.4-9.5-47.4-26.8-64.6c-3.8-3.8-3.8-9.8,0-13.6c3.8-3.8,9.8-3.8,13.6,0c20.9,20.9,32.4,48.7,32.4,78.2
		C283.4,202.1,271.9,229.9,251,250.7z"/>
</g>
</svg>
