<?xml version="1.0" encoding="UTF-8" standalone="no"?>
<!DOCTYPE svg PUBLIC "-//W3C//DTD SVG 1.1//EN" "http://www.w3.org/Graphics/SVG/1.1/DTD/svg11.dtd">
<svg version="1.1" xmlns="http://www.w3.org/2000/svg" xmlns:xlink="http://www.w3.org/1999/xlink" preserveAspectRatio="xMidYMid meet" viewBox="-0.5581094214624187 -0.9998799892127428 27.113529583661983 32.00135568168095" width="23.11" height="28"><defs><path d="M3.53 18.27C2.35 12.65 6.63 7.68 12.05 7.68C12.05 8.09 12.05 11.33 12.05 11.73C12.05 12.39 12.83 12.71 13.28 12.24C13.83 11.69 18.23 7.29 18.78 6.74C19.07 6.45 19.07 6 18.78 5.71C18.23 5.16 13.83 0.76 13.28 0.21C12.83 -0.24 12.05 0.08 12.05 0.73C12.05 1.14 12.05 4.38 12.05 4.78C4.88 4.78 -0.78 11.28 0.67 18.72C1.54 23.23 4.88 26.7 9.36 27.7C16.37 29.27 22.64 24.51 23.54 18.02C23.67 17.16 22.96 16.39 22.09 16.39C21.37 16.39 20.77 16.93 20.67 17.64C19.97 22.53 15.2 26.12 9.9 24.84C6.63 24.06 4.23 21.55 3.53 18.27ZM10.32 14.55L7.75 15.46L7.75 16.47L9.22 16.02L9.22 20.75L10.45 20.75L10.45 14.55L10.32 14.55ZM13.05 15.1C12.88 15.32 12.72 15.59 12.63 15.93C12.54 16.26 12.48 16.65 12.48 17.12C12.48 17.22 12.48 18.09 12.48 18.19C12.48 18.66 12.54 19.06 12.64 19.38C12.75 19.7 12.89 19.99 13.08 20.21C13.27 20.43 13.49 20.59 13.75 20.69C14.01 20.79 14.28 20.83 14.6 20.83C14.92 20.83 15.2 20.79 15.46 20.69C15.72 20.59 15.94 20.43 16.11 20.21C16.29 19.99 16.43 19.72 16.53 19.38C16.63 19.05 16.68 18.66 16.68 18.19C16.68 18.09 16.68 17.22 16.68 17.12C16.68 16.65 16.62 16.25 16.52 15.93C16.42 15.61 16.27 15.32 16.08 15.1C15.89 14.88 15.66 14.72 15.42 14.62C15.15 14.52 14.88 14.48 14.56 14.48C14.24 14.48 13.96 14.52 13.7 14.62C13.44 14.72 13.22 14.88 13.05 15.1ZM14.94 19.76C14.82 19.8 14.7 19.83 14.57 19.83C14.44 19.83 14.31 19.8 14.21 19.76C14.11 19.72 14.01 19.63 13.94 19.51C13.86 19.4 13.8 19.24 13.76 19.05C13.72 18.86 13.7 18.63 13.7 18.35C13.7 18.21 13.7 17.09 13.7 16.94C13.7 16.67 13.72 16.44 13.76 16.25C13.8 16.06 13.85 15.91 13.94 15.8C14.02 15.68 14.09 15.59 14.21 15.55C14.33 15.51 14.44 15.48 14.57 15.48C14.7 15.48 14.84 15.51 14.94 15.55C15.04 15.59 15.14 15.68 15.21 15.8C15.29 15.91 15.34 16.06 15.39 16.25C15.43 16.44 15.44 16.67 15.44 16.94C15.44 17.03 15.44 17.51 15.44 18.35C15.43 18.69 15.4 18.92 15.37 19.05C15.33 19.24 15.29 19.4 15.21 19.51C15.14 19.63 15.05 19.72 14.94 19.76Z" id="b1AOI95IRP"></path></defs><g><g><use xlink:href="#b1AOI95IRP" opacity="1" fill="#ffffff" fill-opacity="1"></use><g><use xlink:href="#b1AOI95IRP" opacity="1" fill-opacity="0" stroke="#000000" stroke-width="1" stroke-opacity="0"></use></g></g></g></svg>