<svg xmlns="http://www.w3.org/2000/svg" viewBox="0 0 464 464"><defs><style>.cls-1{fill:#fff;}</style></defs><title>Asset 1</title><g id="Layer_2" data-name="Layer 2"><g id="Layer_1-2" data-name="Layer 1"><g id="Solid"><path class="cls-1" d="M80,48h48a24,24,0,0,0,0-48H24A24,24,0,0,0,0,24V128a24,24,0,0,0,48,0V80L164,196a22.62,22.62,0,0,0,32,0h0a22.62,22.62,0,0,0,0-32h0Z"/><path class="cls-1" d="M196,268a22.62,22.62,0,0,0-32,0h0L48,384V336a24,24,0,0,0-48,0V440a24,24,0,0,0,24,24H128a24,24,0,0,0,24-24h0a24,24,0,0,0-24-24H80L196,300a22.62,22.62,0,0,0,0-32Z"/><path class="cls-1" d="M440,0H336a24,24,0,0,0,0,48h48L268,164a22.62,22.62,0,0,0,0,32h0a22.62,22.62,0,0,0,32,0h0L416,80v48a24,24,0,0,0,48,0V24A24,24,0,0,0,440,0Z"/><path class="cls-1" d="M440,312a24,24,0,0,0-24,24v48L300,268a22.62,22.62,0,0,0-32,0h0a22.62,22.62,0,0,0,0,32h0L384,416H336a24,24,0,0,0,0,48H440a24,24,0,0,0,24-24h0V336A24,24,0,0,0,440,312Z"/></g></g></g></svg>