<?xml version="1.0" encoding="UTF-8" standalone="no"?>
<!DOCTYPE svg PUBLIC "-//W3C//DTD SVG 1.1//EN" "http://www.w3.org/Graphics/SVG/1.1/DTD/svg11.dtd">
<svg version="1.1" xmlns="http://www.w3.org/2000/svg" xmlns:xlink="http://www.w3.org/1999/xlink" preserveAspectRatio="xMidYMid meet" viewBox="-0.5615537282454086 -0.9989417368952722 27.117407566205706 31.997521058138876" width="23.12" height="28"><defs><path d="M5.21 5.72C4.92 6.01 4.92 6.46 5.21 6.75C5.76 7.3 10.16 11.7 10.71 12.25C11.16 12.7 11.94 12.38 11.94 11.74C11.94 11.33 11.94 8.08 11.94 7.68C17.36 7.68 21.64 12.64 20.45 18.25C19.77 21.55 17.1 24.2 13.82 24.89C8.64 25.97 4.02 22.42 3.33 17.62C3.24 16.92 2.63 16.38 1.9 16.38C1.03 16.38 0.34 17.15 0.45 18.02C1.35 24.39 7.42 29.11 14.28 27.77C18.81 26.89 22.45 23.25 23.33 18.72C24.77 11.28 19.13 4.78 11.94 4.78C11.94 3.96 11.94 1.13 11.94 0.73C11.94 0.07 11.16 -0.24 10.71 0.22C10.16 0.77 5.76 5.17 5.21 5.72ZM7.65 16.46L7.65 15.45L10.22 14.54L10.35 14.54L10.35 20.74L9.12 20.74L9.12 16.01L7.65 16.46ZM15.34 20.68C15.09 20.78 14.8 20.82 14.48 20.82C14.16 20.82 13.89 20.78 13.63 20.68C13.37 20.58 13.15 20.42 12.96 20.2C12.77 19.98 12.63 19.71 12.53 19.37C12.42 19.04 12.37 18.65 12.37 18.18C12.37 18.08 12.37 17.21 12.37 17.11C12.37 16.64 12.41 16.24 12.51 15.92C12.61 15.6 12.76 15.31 12.93 15.09C13.11 14.87 13.34 14.71 13.58 14.61C13.83 14.51 14.12 14.47 14.44 14.47C14.76 14.47 15.04 14.51 15.3 14.61C15.56 14.71 15.78 14.87 15.96 15.09C16.15 15.31 16.3 15.59 16.4 15.92C16.5 16.25 16.56 16.64 16.56 17.11C16.56 17.18 16.56 17.54 16.56 18.18C16.53 18.76 16.49 19.15 16.41 19.37C16.31 19.69 16.17 19.98 15.99 20.2C15.82 20.42 15.59 20.58 15.34 20.68ZM14.82 15.54C14.7 15.5 14.59 15.47 14.45 15.47C14.32 15.47 14.19 15.5 14.09 15.54C13.99 15.59 13.89 15.67 13.82 15.79C13.74 15.9 13.69 16.05 13.64 16.24C13.6 16.43 13.58 16.66 13.58 16.93C13.58 17.08 13.58 18.2 13.58 18.34C13.58 18.62 13.6 18.85 13.64 19.04C13.69 19.23 13.74 19.39 13.82 19.5C13.89 19.62 13.98 19.71 14.09 19.75C14.21 19.79 14.32 19.82 14.45 19.82C14.59 19.82 14.72 19.79 14.82 19.75C14.92 19.71 15.02 19.62 15.09 19.5C15.17 19.39 15.22 19.23 15.25 19.04C15.28 18.85 15.31 18.62 15.31 18.34C15.31 18.25 15.31 17.78 15.31 16.93C15.31 16.6 15.3 16.37 15.27 16.24C15.22 16.05 15.17 15.9 15.09 15.79C15.02 15.67 14.93 15.59 14.82 15.54Z" id="ajlXDHYTt"></path></defs><g><g><use xlink:href="#ajlXDHYTt" opacity="1" fill="#ffffff" fill-opacity="1"></use><g><use xlink:href="#ajlXDHYTt" opacity="1" fill-opacity="0" stroke="#000000" stroke-width="1" stroke-opacity="0"></use></g></g></g></svg>