<svg xmlns="http://www.w3.org/2000/svg" viewBox="0 0 20.57 24"><defs><style>.cls-1{fill:#fff;}</style></defs><title>Asset 3</title><g id="Layer_2" data-name="Layer 2"><g id="svg3117"><g id="g3119"><path id="path3121" class="cls-1" d="M13.71,1.26V22.74a1.29,1.29,0,0,1-.34.89,1,1,0,0,1-1.6,0L5.82,17.05H1.14a1,1,0,0,1-.8-.37A1.27,1.27,0,0,1,0,15.79V8.21a1.27,1.27,0,0,1,.34-.89A1,1,0,0,1,1.14,7H5.82L11.77.38a1,1,0,0,1,1.6,0A1.23,1.23,0,0,1,13.71,1.26ZM20.57,12a5.37,5.37,0,0,1-.76,2.79,4.32,4.32,0,0,1-2,1.85,1,1,0,0,1-.44.1,1.06,1.06,0,0,1-.81-.37,1.29,1.29,0,0,1-.34-.9,1.17,1.17,0,0,1,.22-.7,2,2,0,0,1,.52-.49q.3-.21.6-.45a1.92,1.92,0,0,0,.52-.7A2.71,2.71,0,0,0,18.29,12a2.63,2.63,0,0,0-.22-1.12,1.87,1.87,0,0,0-.52-.71q-.3-.24-.6-.45a2,2,0,0,1-.52-.49,1.17,1.17,0,0,1-.22-.7,1.29,1.29,0,0,1,.34-.9,1.06,1.06,0,0,1,.81-.37,1,1,0,0,1,.44.1,4.2,4.2,0,0,1,2,1.84A5.43,5.43,0,0,1,20.57,12Z"/></g></g></g></svg>